# xmcd CD database file
#
# Track frame offsets:
#	150
#	9264
#	35836
#	56832
#	100336
#	132021
#	156778
#	185358
#	222222
#
# Disc length: 3582 seconds
#
# Revision: 0
# Processed by: cddbd v1.5.2PL0 Copyright (c) Steve Scherf et al.
# Submitted via: CDex 1.51
#
DISCID=750dfc09
DTITLE=Sean Johnson and The Wild Lotus Band - Devaloka
DYEAR=2009
DGENRE=New Age
TTITLE0=Calling Ganesha (Invocation)
TTITLE1=Jai Hanuman (Faith)
TTITLE2=Ram Sita Ram (Union)
TTITLE3=Shiva Shankara (Transformation)
TTITLE4=Om Hari Om/Sharanam Ganesha (Refuge)
TTITLE5=Hey Ma Durga (Compassion)
TTITLE6=Radhe Radhe (Passion)
TTITLE7=Devakinandana Gopala (Love)
TTITLE8=Asato Ma (Illumination)
EXTD=YEAR: 2009
EXTT0=
EXTT1=
EXTT2=
EXTT3=
EXTT4=
EXTT5=
EXTT6=
EXTT7=
EXTT8=
PLAYORDER=
